<svg id="Layer_1" data-name="Layer 1" xmlns="http://www.w3.org/2000/svg" viewBox="0 0 512 512"><title>google</title><path d="M6.49,256.15C6.49,118.07,118.08,6.32,256,6.32S505.43,118.07,505.43,256.15C505.43,395,393.85,506.7,256,506.7S6.49,395,6.49,256.15Zm211.09,30.61C201.95,296,192,310.25,192,326.62c0,27.76,28.43,49.82,64,49.82s64-22.07,64-49.82-28.43-49.83-64-49.83h-5a23.78,23.78,0,0,1-2.13-10.68c0-3.56.71-10.68,2.13-10.68h1.42a53.27,53.27,0,0,0,53.31-53.39,35.39,35.39,0,0,0-7.11-19.93l18.48-10V136.57l-38.38,21.35c-8.53-5.7-17.06-9.25-27.72-9.25-29.14,0-52.6,24.2-52.6,53.39,0,17.08,7.82,31.32,19.9,41.28a53.4,53.4,0,0,0-.71,43.42Zm10-84.7a24.88,24.88,0,1,1,49.75,0,24.88,24.88,0,1,1-49.75,0Zm0,124.56c0-10.68,12.79-19.22,28.43-19.22s28.43,8.54,28.43,19.22S271.6,345.84,256,345.84,227.53,337.3,227.53,326.62Z" fill="#88868b"/><path d="M233.29,315.46l7.9-4.94c.42.68-13.37,14.27-12.9,15,1.81,2.91,26.62-20.11,28.17-17.63.14.22-28.72,20.91-27.54,22.79,2,3.14,35-21.89,35-21.89,2.51,4-32.28,25.61-30.63,28.25,1.49,2.39,39.94-25,39.94-25,1.54,2.47-32.24,29.91-32.09,30.15,2.53,4,38.12-25.94,39.06-24.44.36.58-34.49,24.07-33,26.45,2.47,4,33.93-24.83,35.55-22.25,0,0-24,20.34-22.22,23.13.29.46,20.92-16.83,22.6-14.14" fill="none" stroke="#fff" stroke-linecap="round" stroke-linejoin="round" stroke-width="2.34"/><path d="M235.92,184c.11.18,7.75-4.93,7.79-4.87,1,1.65-14.78,13.57-14.07,14.7l25.43-15.92s-28.52,23.62-26.57,26.74c2.64,4.22,34.45-26.5,36.67-22.95,1.83,2.93-34.87,29.93-34.87,29.93s39.23-27,40.31-25.23c1.38,2.22-38,29.32-37.49,30.13,2.26,3.63,39-28.19,40.68-25.45.09.15-37.46,27.59-35.65,30.5,2.56,4.1,37-25.38,38-23.76.76,1.22-30.42,27.48-30.42,27.48s30.21-19.59,30.52-19.1c.6,1-16.34,16.37-14.88,18.71.2.33,7.22-6,7.87-4.93" fill="none" stroke="#fff" stroke-linecap="round" stroke-linejoin="round" stroke-width="2.34"/><path d="M231.49,152.37c4.39,7,160.47-107.71,163.74-102.47,0,0-149.6,85.77-141.7,98.43,3,4.82,143.16-103,149.19-93.36L265.66,150.52S405.48,53.84,409.6,60.44c3.2,5.13-140.92,86.89-137.14,93,9,14.44,132.54-104.39,142.17-89,3.69,5.92-138.34,88.27-135.43,92.93,6.45,10.34,132.68-101.48,141-88.21,0,0-107.59,61.35-102.36,69.73,6.83,10.94,105.17-67.69,106-66.34,5.69,9.12-106,74-106,74,6.88,11,105.52-78.14,111-69.43,5.7,9.13-112,76.37-111,78,8.68,13.92,109.38-83.79,116.26-72.76,4.66,7.46-117.76,77.31-116.26,79.71,5.54,8.88,120.34-75.31,120.34-75.31,8.59,13.76-123.47,76.69-120.34,81.71L441.88,90.87s-149.26,79.88-140,94.76C310.42,199.27,437.56,82,446,95.48c5.73,9.19-142.54,95.11-141.09,97.43,2.72,4.36,142.88-96.21,145.93-91.32,1.8,2.89-152.8,83.92-144.73,96.86.06.1,148.06-92.65,148.06-92.65s-150.18,96.46-148,99.92c0,0,139.64-114.35,151.74-95,4.38,7-160,93.38-153.23,104.21,6.11,9.79,153.32-104.53,157.17-98.36,4.06,6.51-173.3,87.19-160.48,107.75,5,8,161.24-106.94,163.95-102.6,0,0-184.45,109.42-177.55,120.48,8.41,13.48,177.45-120.57,181.72-113.72" fill="none" stroke="#fff" stroke-linecap="round" stroke-linejoin="round" stroke-width="2.34"/><path d="M250.75,256.44c.08.12.73-.61.8-.5.25.39-2.55,9-2,10,1.16,1.85,22.49-14.08,22.49-14.08,1.91,3.07-21.18,22.37-21,22.59S473.29,135.32,473.29,135.32,243.09,252.88,257.75,276.37c5.74,9.19,216.29-139.44,218.13-136.5,4,6.4-210.94,128-204.81,137.85C278.76,290,463.65,121.83,479.53,147.27c0,0-210.1,115.15-199.16,132.7C293,300.15,482.45,153.5,482.45,153.5S284,277,287.39,282.46c7.16,11.48,197.55-123.63,197.55-123.63,13.48,21.61-199.72,112.58-190.8,126.87,4.92,7.89,184.41-134.79,193.11-120.85,3.12,5-191.87,118.45-188.5,123.86,10.47,16.78,186.9-124.52,190.3-119.08,0,0-194.35,107.44-184,124.06,0,0,185.13-119.35,186.7-116.83C500.29,190.5,301.94,286,309.6,298.26c2.78,4.45,178-124.86,184-115.17C505.9,202.76,314.3,304.66,314.3,304.66,328.19,326.92,482.92,170.18,495.91,191c9.11,14.6-191.1,99.89-178.11,120.71,0,0,176.09-119.34,180.19-112.76,12.64,20.26-180.82,115.89-178.08,120.29,13.75,22,179.68-112.44,179.68-112.44,7.48,12-187,107.66-179.06,120.41,0,0,178.54-116.25,180.57-113,3.37,5.41-182.55,124.23-182.55,124.23,13.72,22,171.12-135.38,183.82-115,1.2,1.92-202.4,102.75-188.42,125.15,0,0,176.05-139.56,189.24-118.42,0,.05-203.12,125.19-199.9,130.35,2.52,4,187.1-146.94,200.49-125.47" fill="none" stroke="#fff" stroke-linecap="round" stroke-linejoin="round" stroke-width="2.34"/><path d="M111.46,52.76c1.41,2.27,23.41-17.62,24.74-15.49,3.88,6.21-62.71,35.9-57.76,43.82C86.23,93.57,174.31,15,177,19.4,184.58,31.5,57.66,95.8,61,101.11,63.25,104.77,192.64-2.81,202.3,12.67c11.88,19-155.74,105-154.58,106.85,0,0,167.91-124.71,176.72-110.59,2.17,3.47-190,109.59-183,120.82C46.89,138.55,236.63,7.58,236.63,7.58c16,25.72-211.9,111.89-200.11,130.78C49.21,158.69,231-17,246.11,7.19c2.61,4.19-221.61,127.89-214,140C34.51,151.11,250.53-2.58,256.42,6.86L27.89,156.21c18.34,29.4,230.65-160.83,238-149,0,0-248.77,152.88-243.14,161.91,16.47,26.4,243.34-183.32,257.27-161,.28.45-260.4,169.49-260.4,169.49S282.78-.44,288.81,9.22C291.06,12.83,12.11,179.14,17,186.95,37.16,219.28,296.56,7.24,298.7,10.66c0,0-302.64,159.19-284.8,187.78C23.89,214.45,303.81,2.76,310.2,13L12.19,206.8S300-14.84,318.65,15C332.79,37.68,6,205.21,10.9,213.11,28.57,241.42,319.21,8,324.66,16.76,341.87,44.33-4.41,199.85,9.61,222.31c12.62,20.22,324.23-202.9,324.23-202.9C337.54,25.35,5.52,225.77,8.59,230.69c6.1,9.77,326-219.58,333-208.39C348.8,33.87,5.11,236.92,7.79,241.21,20.2,261.1,346.32,17.65,351.57,26.07c9.5,15.22-347.65,214.81-344,220.64,2,3.28,331.73-246,349-218.39C378.89,64.15-2.35,240.91,7.22,256.25c0,0,357.2-224.94,357.83-223.93C393.2,77.43,7.56,264.69,7.56,264.69L372.71,36.19C391.33,66,7.83,271.66,7.83,271.66c1.65,2.64,370-233.49,370.85-232.07,4.87,7.81-374.51,231-370.6,237.28,1.18,1.89,351.85-272,375.09-234.72C384.31,44-5.86,261.85,9.18,286,39.87,335.14,383,34.22,391,47c6.62,10.61-403.74,211.11-380.69,248,9,14.36,182.68-146.28,197-123.29C209.06,174.61,1.5,284.55,11.18,300.06c0,0,187-126.82,191.4-119.78,9.48,15.2-195.25,118.11-190,126.44,0,0,181.54-125.34,186.81-116.9,10.59,17-189,119-185.13,125.19L197.87,200.07c10.95,17.55-187.8,112.37-181.67,122.2,0,0,173.94-126.88,182-113.91C209,225.58,16.91,326.39,17.8,327.8c2.57,4.12,180.08-115.56,181.37-113.5,9.92,15.9-193.87,96-180,118.27,1.72,2.75,167.41-135.85,181.36-113.49C210.69,235.37,8.14,318.14,21.66,339.8c13,20.87,177.59-120.55,181.82-113.78,14.07,22.55-184.36,111.41-180.22,118,7.81,12.52,180.91-116.2,182.25-114C219.05,251.73,13.17,330,25.19,349.22c12.74,20.42,181.5-118.12,183.54-114.86C212.23,240,17.47,339,27.61,355.24c2.6,4.16,170.47-139.85,185.35-116,0,0-186.9,114.93-182.71,121.64C35,368.5,205.62,224.46,217.59,243.65c10.88,17.43-192,110.93-185.26,121.69.31.49,174.58-126.54,182.34-114.11,6,9.62-186,109.56-179.93,119.26C48.69,392.84,204.5,245.09,213.1,258.88l-176,115.91c2.5,4,162.74-130.5,175.6-109.89,0,0-174.32,112.31-173.34,113.88,0,0,171.64-111.53,173.49-108.57C224.6,289,43.27,385.66,43.27,385.66c13.34,21.38,166.44-114,170.88-106.93C222,291.3,42.32,384.07,47.06,391.66c6.22,10,159.39-122,169.39-106C223,296.11,50,396.09,50.13,396.23c1.89,3,147.19-96.72,149.26-93.4L52.77,400.15c5.2,8.33,133.72-101.34,141.64-88.64,4.34,6.95-137.75,94-137.52,94.41,0,0,128.34-95.06,135-84.45.19.3-132.34,86.9-129.78,91,7.3,11.71,120-96.69,129.67-81.14,5.82,9.32-134.08,72.82-126,85.8,6.48,10.38,119.82-91.28,127.13-79.56,6.4,10.26-132,70.54-124.18,83,0,0,120.22-87.14,125.57-78.58,0,0-129,71.14-121.74,82.73C81.56,439.2,196.77,347,196.77,347c6.57,10.54-126,72.82-120.15,82.16C84.79,442.25,190.8,337.32,199.95,352c0,0-122.13,76.82-119.12,81.64,9.87,15.82,116.68-86.89,122.91-76.91,6.08,9.74-122,74.36-116.91,82.49,8.93,14.32,122.79-77.29,123-77,6.76,10.84-124.59,71.51-118.72,80.94,5.41,8.67,123.82-77.49,123.82-77.49C218.73,371.79,88,435,95.66,447.22c5.34,8.55,125.07-78.27,125.07-78.27,4.33,6.94-124.91,73.25-118.53,83.47,0,0,124.5-84.51,127.46-79.76,9.86,15.8-123.21,83.15-123.21,83.15,2.35,3.76,129.71-81.17,129.71-81.17,2.93,4.7-130.05,74.15-122.36,86.48,8.44,13.52,134.52-85.56,135.14-84.57,0,0-137.21,75.67-129.11,88.65,10.61,17,132.3-103.54,141.61-88.62C267.95,387,119,457.81,126.2,469.39c2.18,3.49,154.17-96.48,154.17-96.48,4.59,7.35-153.39,90-146.72,100.72.84,1.34,360.86-247.29,370.49-231.85C525,275.17,134.56,468.56,140,477.25L504.43,249.18c16.83,27-376.06,203.22-358.76,230.94,11.39,18.26,352.73-234.75,359-224.67C517,275.24,130.52,447,153.43,483.76c3.53,5.67,351-219.65,351-219.65,17.06,27.35-363.08,189.65-341.87,223.66,10.27,16.46,340.65-215,341.47-213.69,7,11.2-350.67,191.2-335.15,216.08,15.19,24.34,322.33-229,334.58-209.37C512,294.52,178.92,493.84,178.92,493.84c17.5,28,321.83-204.53,323.23-202.27,6.89,11-319.3,196.45-314,204.95,3.52,5.63,288.59-234,312.56-195.6C519.23,330.59,197,499,197,499c6.15,9.86,290-208,301.86-188.9,19.31,30.95-291.79,189.22-290.54,191.22,7.08,11.35,267.2-213.4,287.93-180.18,10.42,16.69-297.46,154.69-280.62,181.68,6.82,10.93,262.76-199.5,278.5-174.28C514.16,360.7,224.5,504,224.5,504c16.14,25.86,258.72-180.71,267.16-167.18,15.89,25.46-271.55,144.05-256.3,168.51,3.23,5.17,248.07-164.71,252.32-157.9,8.79,14.08-237.87,158.54-237.87,158.54,3.74,6,223.76-159.16,232.35-145.4C496.17,383,248,490.4,257.87,506.15c9.65,15.47,205.31-163,220.82-138.18,0,0-214.08,122.37-204.62,137.53,6.39,10.24,196-124.64,196.9-123.22,12.7,20.36-189.45,102.13-177.61,121.1,0,0,163.73-110.23,167.22-104.64,3.08,4.94-165.61,86.33-155.49,102.54,6.89,11,148.18-93.8,148.66-93,6.79,10.88-146,72.44-135,90.06,8.87,14.21,124-82.9,126.38-79.09,1.56,2.5-109.41,57.88-101.2,71,2.85,4.57,77.92-59.49,82.73-51.77,0,0-52.07,35.63-51,37.31s24.37-15.83,24.63-15.41" fill="none" stroke="#fff" stroke-linecap="round" stroke-linejoin="round" stroke-width="2.34"/></svg>