<svg id="Layer_1" data-name="Layer 1" xmlns="http://www.w3.org/2000/svg" viewBox="0 0 512 512"><title>instagram</title><path d="M10.37,13.82c.13.23,8.74-5.43,8.89-5.17.83,1.45-9.85,24.84-8.86,26.56C12.13,38.22,46.72,11,48,13.3,49.73,16.24,3.44,52.43,5.49,56,7.8,60,80,4.89,83.37,10.69,87,17,13,64.72,15.59,69.29c4.57,8,90-62.36,94.26-54.85,3.86,6.75-98.63,69.73-94.18,77.49,4.58,8,130.24-89.34,136.06-79.17,6.47,11.3-135.67,86.35-131,94.48,6.94,12.11,158-110.69,166.06-96.62C195.66,26.11-3.07,129.79,3.67,141.57,10.94,154.24,214.73,1,222.37,14.32S8.19,137.41,16.43,151.79C28.23,172.39,243.6-1.13,252.51,14.43,260.72,28.75-4,163.23,6.53,181.54,16.28,198.55,287.11-8,298.39,11.73,308.54,29.45-4.6,182.25,7.45,203.29,19.17,223.74,332.28-15.55,345.1,6.83,360.3,33.36,3.48,192.54,16.62,215.48,32.3,242.85,350.69-10.14,364.11,13.29,380.48,41.86,1.34,221.69,13.29,242.55c14.31,25,388.53-264.92,405.23-235.78C433.88,33.6-4.29,233.29,14.07,265.34c19.37,33.81,423.56-296.61,445.12-259C478.5,40.07,5.64,255.39,20.25,280.89c17,29.66,451.24-307.17,470.41-273.7,17,29.67-497.52,260.53-477.44,295.58C29,330.26,489.1-16.07,507.12,15.39,530.8,56.72-7.67,292.14,11.61,325.79,34.4,365.56,476.68.37,500.24,41.49,522.32,80,.42,316.41,17.94,347c18.78,32.78,462.39-321.64,485-282.19C527.1,107-7.07,336.52,12.66,371,30.91,402.81,482,54.55,500.6,87.05c20,34.89-509.18,274.71-491.73,305.15C24.94,420.26,483.51,65.91,505.05,103.5,526.17,140.38-10.15,367,13,407.5c22.18,38.72,477.67-318,494.9-288C528.25,155-9.72,391.4,12.65,430.46,32.64,465.34,490.06,115.55,506,143.4,524.5,175.66-12,416.34,11.15,456.71,29.82,489.31,477.67,132.06,500.54,172,519,204.26-16.54,437.42,7.68,479.7c19.16,33.44,478.57-321.92,497.25-289.32,20,34.9-504.71,270.16-486.3,302.3C38.19,526.83,477.4,188.19,493.53,216.36c19.43,33.91-483,247.68-460,287.7,15.47,27,441.37-301.44,460.55-268,13.76,24-432.55,231.39-414.32,263.21C95.51,526.84,476.39,232.15,492,259.43c13.2,23-383.09,218-370.68,239.7,17.4,30.37,363-248.84,379.2-220.64C515.17,304,144,470.06,159.54,497.12c11.34,19.79,319-216.05,332.11-193.24,11.13,19.42-312.82,177.84-300.42,199.47C205.68,528.57,487,301.19,499.89,323.76c12,21-273.69,152.92-260.68,175.63,11.5,20.08,245.66-163.46,254.48-148.06,11,19.12-239.19,131.85-227.65,152,8.83,15.42,216.53-146.18,225.21-131S301.41,489.67,308.39,501.86c7.55,13.18,182.28-127,191.26-111.28,5.66,9.88-158.21,93.76-151.22,106C354.91,507.84,495.86,393,503.5,406.3c6.39,11.16-142.66,88.86-137.3,98.22,4.33,7.56,131.27-89.86,137.06-79.75,3.75,6.54-107.72,69.46-102.29,79,4.06,7.09,95.26-63.66,98.8-57.49,3.23,5.63-61.07,53.76-58.26,58.66,2.44,4.26,62.31-42.08,64.82-37.71,1.42,2.48-30,34.11-28.49,36.81.73,1.27,11.75-8.62,12.51-7.28" fill="none" stroke="#0095a4" stroke-linecap="round" stroke-linejoin="round" stroke-width="6.96"/><g opacity="0.8"><path d="M9.79,14.16c.14.25,5.93-3.78,6.07-3.53,1.28,2.24-11.05,29.49-10,31.3C7.63,45,58.13,6.27,60.38,10.2,62.85,14.51,9.76,55,12.11,59.09c3.9,6.81,72.63-49.2,75.61-44C91.55,21.77,14.21,73.14,17,78c5.6,9.78,108.47-73.26,112.83-65.65,4,7.05-120.41,78.46-114.9,88.07C21.41,111.74,157.46.83,164.6,13.3,170.28,23.22,2.66,114.06,9.78,126.49,19.13,142.82,196.11,3.4,202.42,14.41,209.82,27.33,13.14,133.9,21.14,147.86,30.92,164.92,254.12-8.9,263.23,7,274.72,27,6.67,159,15,173.45c11,19.26,261.9-179,273.33-159C297.41,30.32,3.51,176.66,16.08,198.61,26.88,217.46,332.82-10.54,343.5,8.1,359.2,35.51,5,198.44,19.56,223.87,37.25,254.75,375.51-22,392.16,7.08,410.42,39-3.44,215.88,14.48,247.17,33.59,280.52,405.68-21,423.11,9.41c15.57,27.18-432.34,241.7-416.7,269C28.52,317,455-22.55,472.18,7.41,492.27,42.49-2.06,256.59,18.53,292.52c19.94,34.8,462.91-312.7,481.54-280.18C518.32,44.19-8.14,291.54,8.75,321,29.51,357.26,475.6-1.08,497.29,36.78c18.39,32.1-500.85,264.89-479,303C37.63,373.56,483.75,29.47,500.69,59,522.21,96.61-8.61,329.87,14.17,369.64,37.58,410.5,485,44.46,507,82.9,527.37,118.48-8.46,355.21,14.49,395.26,33,427.52,480,81.62,498.39,113.71,514.53,141.88-12.07,390.8,8.23,426.24,24.33,454.34,482,107.78,500.39,139.89,518.16,170.89-6,416.43,12.08,448S473.62,139.58,490.77,169.52C506.88,197.63-13.59,433.53,8,471.29,29.3,508.39,486.44,156.84,502,183.92,526.26,226.35-17,452.06,7.24,494.4c20.83,36.36,472.63-314.1,489.44-284.77,14.89,26-474.64,256.91-457,287.75C61.92,536.15,485.43,203.09,500.45,229.3c18.33,32-453.07,246.69-435.71,277C83.17,538.47,478.85,228.12,494.85,256,513.49,288.57,102.74,471.31,117,496.14c14.07,24.55,359.48-244.43,374.63-218,12.57,21.94-354.61,197-338.9,224.45,12.59,22,339.47-228.72,352.88-205.32,14.89,26-328.12,182.26-313.74,207.36C205.29,528.13,481.78,304.1,495.47,328c9.35,16.31-268,154-257.42,172.39,11.37,19.85,254.54-168.31,263.22-153.15,11.84,20.68-243.49,141.23-233.64,158.43S491.27,353.46,500.76,370c8.94,15.61-195.9,122.93-188.59,135.69,5.71,10,178.43-119,185-107.61,5.54,9.67-142,97.81-137.08,106.41,6.12,10.68,124.82-87.22,131.09-76.27,4,7-90.17,71.31-86.5,77.7,3.43,6,97.49-63.13,100.24-58.32,2.54,4.44-52.67,52.65-50,57.25,1.58,2.75,33.92-23.87,35.69-20.77.56,1,7.6,14.53,8.13,15.47.17.29.47-.54.59-.34" fill="none" stroke="#0095a4" stroke-linecap="round" stroke-linejoin="round" stroke-width="6.96"/></g><path d="M500,502c-5.37,5.43-8.29-2.52-15.9-2.52s-7.6-1.38-15.21-1.38-7.61,4.72-15.22,4.72-7.6-1.32-15.21-1.32-7.6-2.45-15.2-2.45-7.6-.45-15.21-.45S400.41,502,392.81,502s-7.6-2.62-15.21-2.62-7.6.33-15.21.33-7.61-1.6-15.22-1.6-7.6,2.11-15.21,2.11-7.61,3.57-15.22,3.57-7.61-5.9-15.21-5.9-7.61,6.14-15.22,6.14-7.61-3.71-15.21-3.71-7.61.21-15.22.21-7.61,3.37-15.21,3.37-7.61-6-15.22-6-7.61,4.37-15.22,4.37-7.61-2.48-15.22-2.48-7.61,1.49-15.22,1.49-7.61-2.44-15.22-2.44-7.6-.5-15.21-.5-7.61-.39-15.22-.39-7.61,5.77-15.22,5.77-7.61-.38-15.22-.38S96.1,499,88.49,499s-7.61,2.81-15.23,2.81-7.61,1.17-15.22,1.17-7.62-3.23-15.23-3.23-7.62,3-15.24,3-8.84,3-14.23-2.45-2.05-6.65-2.05-14.32,3.41-7.66,3.41-15.32S10.29,463,10.29,455.3s2.33-7.66,2.33-15.32.55-7.66.55-15.32-.88-7.66-.88-15.33-.6-7.67-.6-15.33-.42-7.66-.42-15.32S14.8,371,14.8,363.34s-2.24-7.67-2.24-15.33S15,340.34,15,332.68s-1.61-7.67-1.61-15.33S10,309.68,10,302s.63-7.67.63-15.33.13-7.67.13-15.33,4.78-7.67,4.78-15.34-.66-7.67-.66-15.33-2.84-7.67-2.84-15.34,1-7.67,1-15.34-4-7.67-4-15.34S8.9,187,8.9,179.32s4.21-7.67,4.21-15.34-.73-7.66-.73-15.33S15,141,15,133.32s-1.88-7.67-1.88-15.34S12,110.31,12,102.64,14.53,95,14.53,87.3s-.38-7.67-.38-15.34-2.8-7.67-2.8-15.34,2-7.67,2-15.35S15,33.59,15,25.91,5.79,14.83,11.18,9.39s8.76,1.91,16.37,1.91,7.6,1.88,15.21,1.88S50.36,10.05,58,10.05s7.6,2.41,15.21,2.41,7.6-1.67,15.2-1.67,7.6,2,15.21,2,7.61-3.62,15.21-3.62,7.6,2,15.21,2,7.6-1.6,15.21-1.6,7.61,1.06,15.22,1.06,7.6,3.14,15.21,3.14,7.61-1.59,15.22-1.59,7.61-3,15.21-3,7.61,2.54,15.22,2.54S232.89,7.6,240.5,7.6s7.61,6.14,15.22,6.14,7.61-4.11,15.21-4.11,7.61-1.53,15.22-1.53,7.61-.79,15.22-.79,7.61,5.45,15.22,5.45,7.61-1.69,15.22-1.69,7.61-.82,15.22-.82,7.6,1.67,15.21,1.67,7.61-2.33,15.22-2.33,7.61,1.63,15.22,1.63,7.61-2.56,15.22-2.56,7.61.51,15.22.51,7.61.63,15.23.63,7.61,1.42,15.22,1.42,7.62.77,15.23.77,7.62.89,15.24.89,8.72-6.61,14.11-1.18,3.13,6.53,3.13,14.19-.06,7.66-.06,15.32-3,7.67-3,15.34,1,7.66,1,15.32,1.19,7.66,1.19,15.32-1.08,7.66-1.08,15.33S497,110.19,497,117.85s-.53,7.66-.53,15.32.85,7.66.85,15.33-1.15,7.67-1.15,15.33.34,7.66.34,15.33,4,7.67,4,15.33-.56,7.67-.56,15.33-2.37,7.67-2.37,15.33,1.6,7.67,1.6,15.33.18,7.67.18,15.34-2.3,7.67-2.3,15.33.22,7.67.22,15.34.26,7.67.26,15.34,2.54,7.67,2.54,15.34.86,7.67.86,15.34-.73,7.67-.73,15.34-.32,7.66-.32,15.33-1,7.67-1,15.33-.93,7.67-.93,15.34-.15,7.67-.15,15.34,3.34,7.67,3.34,15.34-3.59,7.67-3.59,15.34-.4,7.67-.4,15.34,4.3,7.67,4.3,15.35-2.47,7.57-.72,15C502.57,494,505.35,496.54,500,502Z" fill="none" stroke="#0095a4" stroke-linecap="round" stroke-linejoin="round" stroke-width="9.86" opacity="0.7"/><path d="M500.82,502.84c-6.62,6.68-10.9-5.53-20.26-5.53s-9.36,6.41-18.71,6.41-9.36-1.85-18.72-1.85-9.36,3.43-18.73,3.43-9.36-3.19-18.72-3.19-9.36-4.58-18.73-4.58-9.36,7.11-18.72,7.11-9.36-.84-18.72-.84-9.36-5.51-18.72-5.51-9.36,6-18.73,6-9.36-4.08-18.72-4.08-9.36,2-18.73,2-9.37,2-18.73,2-9.36-5.11-18.73-5.11-9.36,2.53-18.73,2.53-9.37-5-18.73-5-9.37,3.86-18.73,3.86-9.37,1.69-18.73,1.69-9.36-3.35-18.73-3.35-9.36,6.44-18.73,6.44-9.36-6.58-18.73-6.58S96.67,505,87.3,505s-9.37-8.22-18.74-8.22-9.37,7.72-18.73,7.72-9.37-4.72-18.75-4.72-13,9.14-19.66,2.47.54-10.36.54-19.79-1.48-9.43-1.48-18.86,1.74-9.43,1.74-18.86-2.9-9.44-2.9-18.87,5.73-9.43,5.73-18.86-2.75-9.44-2.75-18.87,1.13-9.43,1.13-18.87-.87-9.43-.87-18.87-3.36-9.43-3.36-18.87,5.25-9.44,5.25-18.87-.12-9.43-.12-18.87-5.49-9.44-5.49-18.87S14,265.43,14,256s2.18-9.44,2.18-18.87-6.47-9.44-6.47-18.87S14,208.81,14,199.37s1.1-9.44,1.1-18.88.06-9.44.06-18.88.05-9.44.05-18.87-3.38-9.44-3.38-18.87S8.05,114.42,8.05,105s2.46-9.44,2.46-18.88S7.88,76.66,7.88,67.22,9,57.78,9,48.34s6.42-9.45,6.42-18.89S3.06,14.57,9.68,7.89,21.69,9,31.05,9s9.36-2.37,18.71-2.37,9.36-.55,18.72-.55S77.85,8,87.21,8s9.36.5,18.72.5,9.36,4.42,18.73,4.42,9.36-1.5,18.72-1.5,9.36-1.94,18.72-1.94,9.36,2.31,18.72,2.31,9.36-2.4,18.73-2.4,9.36-2,18.72-2,9.36,3.42,18.73,3.42,9.37-2.65,18.73-2.65,9.36,6,18.73,6,9.36-7.65,18.73-7.65,9.37,6.34,18.73,6.34,9.37.67,18.73.67,9.37,1.33,18.73,1.33,9.36-6.44,18.73-6.44,9.36,5.07,18.73,5.07,9.36.15,18.73.15S414.94,8,424.31,8,433.68,6.43,443,6.43s9.37,3.72,18.73,3.72,9.37-2.6,18.75-2.6S492.34,4.19,499,10.87s-2.44,9.12-2.44,18.56.34,9.43.34,18.86,1,9.43,1,18.86,1.94,9.44,1.94,18.87-1.91,9.43-1.91,18.86-.64,9.44-.64,18.87-1,9.43-1,18.87,3.26,9.43,3.26,18.87-.36,9.43-.36,18.87,1.59,9.44,1.59,18.87-.91,9.43-.91,18.87S497,227.53,497,237s5.73,9.44,5.73,18.88-2.14,9.44-2.14,18.87-4.77,9.44-4.77,18.87,5.69,9.44,5.69,18.88-3.08,9.44-3.08,18.88-3.07,9.44-3.07,18.88.71,9.44.71,18.87,4.58,9.44,4.58,18.87,1.14,9.44,1.14,18.87-1,9.44-1,18.88-4.91,9.44-4.91,18.89-.64,9.44-.64,18.88,5.76,8.73,8.05,17.89C505.89,492,507.44,496.15,500.82,502.84Z" fill="none" stroke="#0095a4" stroke-linecap="round" stroke-linejoin="round" stroke-width="6.57" opacity="0.8"/><path d="M335.19,125.48H176.41c-27.58,0-50,22.62-50,50.41V336c0,27.8,22.44,50.41,50,50.41H335.19c27.58,0,50-22.62,50-50.41V175.89C385.22,148.09,362.78,125.48,335.19,125.48Zm14.36,30.07,5.72,0v44.23l-43.74.13-.15-44.21Zm-130.68,73.6a45.91,45.91,0,1,1-8.62,26.76A45.88,45.88,0,0,1,218.87,229.15ZM360,336a24.92,24.92,0,0,1-24.8,25H176.41a24.92,24.92,0,0,1-24.8-25V229.15h38.64A71.2,71.2,0,0,0,185,255.91c0,39.33,31.74,71.35,70.77,71.35s70.77-32,70.77-71.35a71.5,71.5,0,0,0-5.22-26.76H360Z" fill="#fff"/></svg>