<svg id="Layer_1" data-name="Layer 1" xmlns="http://www.w3.org/2000/svg" viewBox="0 0 512 512"><title>twitter</title><path d="M504.27,256c0,137.26-110.92,248.33-248,248.33S7.62,393.27,7.62,256,119.24,7.68,256.3,7.68,504.27,118.76,504.27,256ZM361.57,192.34c10.6-6.37,17.66-16.27,22.61-27.59-9.89,5-21.2,9.9-33.21,12a46.89,46.89,0,0,0-36-16.27c-27.55,0-50.16,22.64-50.16,50.94a62.11,62.11,0,0,0,1.41,11.32c-42.39-2.12-78.42-21.93-103.85-53.06A52.41,52.41,0,0,0,156,195.17c0,17.69,7.77,33.25,21.9,41.74a46.55,46.55,0,0,1-22.61-5.66V232a50.81,50.81,0,0,0,39.56,49.52,64.83,64.83,0,0,1-13.42,1.42,35.32,35.32,0,0,1-8.48-1.42c5.65,19.81,24,34.67,46.63,35.37a100.09,100.09,0,0,1-62.17,21.23h-12a142.57,142.57,0,0,0,77,22.64c92.55,0,142.71-76.41,142.71-143.62v-6.37a111.29,111.29,0,0,0,25.43-26.18A124.48,124.48,0,0,1,361.57,192.34Z" fill="#88868b"/><path d="M163.27,169.69c3.76,6,199.55-148.85,210.31-131.61,10.43,16.71-210,129.36-204.84,137.6C177.42,189.6,381,41.74,381.47,42.57,387,51.37,172,178.93,172.75,180.08,185.95,201.23,369.89,18.21,387.17,45.9s-222.27,118-209.2,139c12.62,20.23,201-157.81,215.4-134.79,0,0-212,137.82-212,137.92,14.83,23.77,215.74-135.63,216-135.18,14,22.43-216.53,129.75-210.15,140C203.73,219.19,390.72,36.4,403.78,57.32c11.38,18.23-217.11,130.38-211.7,139C199.64,208.49,393,36.32,408.39,61c17.13,27.46-215.34,132.3-211.18,139,15.33,24.57,216-135.15,216-135.15,17,27.28-217.4,126.13-209.31,139.09,6.2,9.93,198.57-160.56,214.86-134.45,5,8-206.54,138.87-206.54,138.87S411.38,53.45,424.93,75.18C436,93,205.93,192.72,217,210.49,220.26,215.68,425,72.95,428.28,78.28,428.28,78.28,207,188,222.59,213c2.41,3.87,51.74-33.9,52.42-32.8,3.57,5.72-46.46,32.63-44.77,35.33.91,1.47,36-27.07,38-23.8,1.28,2-30.72,24.56-29.63,26.3,0,0,25.2-18.84,26.57-16.63,1.66,2.65-18.39,17.34-17.64,18.54.23.38,15.87-11.79,16.7-10.45s-8,10.76-7.31,11.82c.32.51,6.9-5.6,7.47-4.68" fill="none" stroke="#fff" stroke-linecap="round" stroke-linejoin="round" stroke-width="2.33"/><path d="M294.87,164.68c4.34,7,126.18-99.26,135.29-84.66,0,0-118.92,72.84-114.45,80,8.39,13.45,113.9-83.63,119.44-74.74,1.76,2.81-113.29,71-110.39,75.63C333.6,175.08,433.23,80.21,439,89.43c6.24,10-106.52,73.39-106.35,73.66C335,167,442.31,92.59,443.15,93.94c8.41,13.48-105.24,70.54-104.3,72,6.5,10.41,105.92-70.84,108-67.56,6.12,9.81-106.94,64.85-103.33,70.63,8,12.74,102-73.86,106.49-66.64,0,0-107,62.66-102.44,69.89,1,1.62,104.48-67.66,105.5-66,0,0-107.86,60.07-102,69.5,2.33,3.74,96.92-78.56,105-65.68,5.06,8.11-88.88,54.2-85.08,60.29,3.38,5.41,87.38-57,88.42-55.33,3.19,5.11-80.05,52.31-77.79,55.93,0,0,74.86-61,81.23-50.83,1.36,2.17-89.73,55.75-87.11,59.94,6.5,10.42,89.69-56.12,89.69-56.12,2.47,4-101.72,58.59-96.68,66.66.27.43,93-72.35,99.39-62.19,1,1.62-89,51.12-84.55,58.28,1.65,2.65,86.8-54.32,86.8-54.32,1.36,2.18-94.21,61.2-91,66.28,6.23,10,88.33-70,94.94-59.41,0,0-112.37,69.1-108.44,75.4,7.12,11.4,107.6-75.79,111.4-69.71,7,11.26-120.11,66.47-111.77,79.84,9.45,15.14,113.11-75.79,115.36-72.19,9,14.41-125.33,65-116,79.94.26.42,118.66-74.25,118.66-74.25,7.37,11.81-122.38,80.51-120.05,84.24,8.89,14.25,122.94-76.93,122.94-76.93s-131.72,77.86-125.44,87.93c5.74,9.21,126.81-82.71,128.31-80.3,7.54,12.09-138.35,75-130.51,87.57,2.47,4,128.7-88.55,132.3-82.79,0,0-136.54,86-134.42,89.39,10.7,17.15,129.17-95.41,135.71-84.92,0,0-150,76.77-139.4,93.74,0,0,137-94.69,141-88.23,7.83,12.55-151.81,90.55-146.41,99.21,11.92,19.11,148.26-92.78,148.26-92.78C496.52,195.7,330,283.6,340,299.54c8.61,13.8,151.35-108,157.29-98.43,11.44,18.33-171.51,101.34-166,110.1,8.43,13.51,156.38-121.9,167.17-104.61,9.72,15.58-196,116.17-189.76,126.2,0,0,187.19-125.87,191.11-119.59" fill="none" stroke="#fff" stroke-linecap="round" stroke-linejoin="round" stroke-width="2.33"/><path d="M146.45,337.59c2.15,3.45,45.84-28.69,45.84-28.69.71,1.14-36,25.58-34.07,28.67l40.35-25.25c.16.26-30.79,22-29.24,24.51,0,0,34.66-23.28,35.37-22.14.81,1.3-22.66,18-21.63,19.68,0,0,27.17-20.23,28.62-17.91" fill="none" stroke="#fff" stroke-linecap="round" stroke-linejoin="round" stroke-width="2.33"/><path d="M174,281.11c.48.77,6.91-4.33,6.91-4.33.26.41.79,5.12,1.1,5.62.16.25,4.33-3.12,4.52-2.83" fill="none" stroke="#fff" stroke-linecap="round" stroke-linejoin="round" stroke-width="2.33"/><path d="M156.31,231c.7,1.12,8.21-5.44,8.35-5.22,0,0-4,6.56-3.43,7.42.42.68,5.78-4.89,6.35-4l-.39,5.77c.11.17,3.38-2.74,3.66-2.29" fill="none" stroke="#fff" stroke-linecap="round" stroke-linejoin="round" stroke-width="2.33"/><path d="M111.87,54.22s24.07-16.83,24.86-15.56C138.18,41,76,85.8,76,85.8S179.76,16,181.94,19.48c8.75,14-118.11,75.27-116.39,78,5.08,8.14,127.73-88.43,131.54-82.32C206,29.44,44.45,98.44,53.61,113.11,65.82,132.69,204.42-7.63,216.25,11.33,224.76,25,37.22,114.7,44.65,126.61,49.29,134,231.9,9.43,231.9,9.43,237.14,17.82,29.69,119.65,39.58,135.5,53.2,157.32,228-14,242.16,8.73c.7,1.13-211.43,133.32-208.49,138,1.79,2.86,207-161.67,221.42-138.56C273.19,37.22,28.75,154,29.62,155.36,36.09,165.73,259.46.82,264.27,8.52,280.39,34.36,9.95,141.13,25.33,165.79,43.94,195.61,261.72-13.73,275.9,9c.56.89-266.32,147.36-254.29,166.64,0,0,255.55-179.53,264.35-165.43C303.3,38,9.76,168.4,19.19,183.5L294.46,11.24C304.09,26.67,1.51,167.7,16.7,192.05,26.16,207.21,284.46-16.91,303,12.87,321.28,42.1,9.52,192.63,14.59,200.74c.19.31,284.87-206,297.33-186.06C317.62,23.83,2.25,189.75,13.23,207.35c0,0,291.47-213.21,305.3-191C331.44,37,0,197.73,11.49,216.12,31.64,248.41,301.26-22.39,326.92,18.74c10.62,17-327,186.48-316.2,203.73C29.28,252.22,324.17,5.92,333.32,20.59,345,39.32,3.62,222.29,9.57,231.83c0,0,307-248.82,332.44-208C365,60.62,9,239.62,9,239.62c15.36,24.61,334.48-222.57,340.43-213,0,0-342,220.47-340.81,222.44C35.9,292.79,336.74-3.72,358,30.37,385.24,74-20,209.69,8.34,255.08,20.3,274.25,363.4,32.9,363.4,32.9,376.09,53.24,8.51,260.26,8.51,260.26c10.61,17,331.82-269.79,359.71-225.09C396.62,80.7-10.81,237.06,8.84,268.55c.78,1.25,151-94.5,151-94.5.36.58-158,91.56-150.51,103.6,0,0,143-98,146.83-91.88,10.3,16.51-157.11,81.6-145.89,99.6,5.9,9.45,143.29-93.61,145.06-90.78,6.16,9.87-144.41,96.12-144.41,96.12s135.39-105.44,144.68-90.54L12.09,298.45S149.22,195.77,156.79,207.9C167.48,225,5.21,290.58,13.06,303.14c5.66,9.08,142.3-94.68,144.83-90.63,0,0-155.1,77.78-143.73,96l145.72-91.19c.94,1.51-147.46,93.08-144.27,98.2,8.75,14,141.21-102.29,147.46-92.28C172.15,237.8,8.25,307.75,17.79,323c10.13,16.23,133.38-92,137.21-85.86.41.65-136.21,90.31-135.66,91.18C27.78,341.9,152.26,237.25,155.82,243c0,0-134.62,91.73-134.58,91.79,5.45,8.73,131-93.85,136.32-85.3,6.26,10-142.62,77.38-134.21,90.86,0,0,133-91.28,136.65-85.51,7.6,12.18-136.29,88-134.78,90.44,7.13,11.43,128.51-100,137.3-85.92,11,17.58-139.12,86-134.16,94,3.46,5.54,129.69-102.53,139.28-87.16L30.26,357.34s131-103.13,140.5-87.92c3.94,6.32-147,79.05-137.47,94.37,11.29,18.09,142.08-91.66,143.32-89.68,6.74,10.81-149.45,81.37-140.22,96.16L173.3,284.59c6.44,10.33-142.51,77.17-133.72,91.26,2,3.23,131.92-92.09,136.2-85.23S42.45,380.88,42.45,380.88l136.38-85.34c5.84,9.35-134.11,89.46-133.21,90.89,4.85,7.77,130.64-96.39,137.21-85.86,8.76,14-134.2,90.1-132.53,92.78,9.15,14.66,133.19-95.93,138.84-86.88,9.92,15.89-136.39,90.44-135.89,91.24,7.3,11.7,91.33-61,93.07-58.24,1.19,1.91-92.88,58.18-90.19,62.49,1.44,2.31,93.48-62.35,95.2-59.58,0,0-96.54,56.07-91.12,64.76,6.05,9.7,97.71-61.15,97.71-61.15,7.32,11.73-92.55,67.64-92.55,67.64s97.55-69.83,101.49-63.51c0,0-103,59.69-98,67.84.09.14,104.5-65.39,104.5-65.39L72.06,421.34c2.07,3.32,99.78-78.15,106.83-66.85,1.09,1.74-102.64,70.57-101.14,73,1.39,2.23,104.23-82.49,112-70.07.44.7-113.49,64.27-106.22,75.92,9.42,15.09,114-79.84,117.85-73.75,9.34,15-116,72.46-111.54,79.58C94.12,446,206,346.62,214.88,360.88c4.53,7.27-125.55,74.76-121,82,7.37,11.81,124.22-92.15,130.69-81.78.67,1.07-136.08,69.5-126,85.71,0,0,128.13-101.81,137.84-86.25,9,14.5-139.1,79.56-132.07,90.82,11.59,18.58,147.87-95.95,149.4-93.49,0,0-150.38,88.23-144.85,97.1.29.47,164-102.62,164-102.62,8.67,13.9-164.12,97.67-158.71,106.34,0,0,381.8-248.84,386.25-241.71,0,0-412.09,196.37-382,244.56,0,0,381-242,382.64-239.45,0,0-397.18,211.61-377.77,242.73C142.2,495.13,487.6,205.27,501.78,228c28.83,46.2-375.73,235.14-372.29,240.65,3.81,6.1,348.83-272.49,373.16-233.51,14.59,23.38-385.88,208-368.17,236.34,26.78,42.93,362.6-240,368.48-230.58C527.76,280.65,135.49,467.2,140.18,474.7c6.78,10.87,353.13-243.06,363-227.18C514.57,265.73,148.71,479,148.71,479,166.65,507.72,499,249.64,503.55,256.91,531.92,302.37,155.18,482,155.18,482c1.36,2.19,345.68-221.65,348.08-217.82L161,484.64c9.22,14.77,342-214,342-214,2.73,4.37-351.11,187.93-332.61,217.58,9.1,14.58,331.9-207.7,331.9-207.7,26.28,42.11-327.88,204.33-323.9,210.71,17.46,28,296.85-243.69,322.84-202,0,0-338,167.08-314.69,204.38,22.93,36.75,295.73-225,313.65-196.28,21,33.62-324.36,170-306.72,198.28,14.43,23.13,305.23-191,305.23-191C509.62,322,201.45,494.37,203.7,498c0,0,286.69-193.36,293-183.32C516.8,346.92,208.54,495.57,211,499.45c18.61,29.83,264.92-207.68,283.72-177.55,8.1,13-277.41,178.78-277.41,178.78C235,529.06,476,301.26,492.86,328.23,513.49,361.31,229.44,500.6,230.5,502.3c0,0,243.47-185.29,258.25-161.6,8.76,14-262.06,141.34-248.87,162.47,17.55,28.12,241-161,245.56-153.66C492.49,360.82,253.1,502,254.19,503.74c9,14.37,209-167.2,225.37-141,13.62,21.83-214.22,136.94-211.88,140.7.14.22,199.62-139,205.93-128.86,3,4.86-196.62,126.8-195.63,128.38,0,0,174.93-143.92,190.39-119.14l-172.67,117c2.75,4.4,151-121,162.87-101.92,8,12.81-151.86,90.64-146.8,98.75.37.59,136.35-86.68,137-85.71,3.16,5.07-115.62,70.74-110.89,78.33,5.91,9.47,91.43-61,93.13-58.28,2.51,4-59,36.28-55.62,41.63,0,0,23.31-17.43,24.58-15.38" fill="none" stroke="#fff" stroke-linecap="round" stroke-linejoin="round" stroke-width="2.33"/></svg>